HIERARCHY
ROOT Hips
{
    OFFSET 13.569282531738281 94.97510528564453 -18.392553329467773
    CHANNELS 6 Xposition Yposition Zposition Zrotation Xrotation Yrotation
    JOINT RightUpLeg
    {
        OFFSET -13.569282531738281 0.0 0.0
        CHANNELS 3 Zrotation Xrotation Yrotation
        JOINT RightLeg
        {
            OFFSET 0.0 -48.99372100830078 0.0
            CHANNELS 3 Zrotation Xrotation Yrotation
            JOINT RightFoot
            {
                OFFSET 0.0 -45.98138427734375 0.0
                CHANNELS 3 Zrotation Xrotation Yrotation
                End Site
                {
                    OFFSET 0.0 0.0 18.392553329467773
                }
            }
        }
    }
    JOINT LeftUpLeg
    {
        OFFSET 13.569282531738281 0.0 0.0
        CHANNELS 3 Zrotation Xrotation Yrotation
        JOINT LeftLeg
        {
            OFFSET 0.0 -48.99372100830078 0.0
            CHANNELS 3 Zrotation Xrotation Yrotation
            JOINT LeftFoot
            {
                OFFSET 0.0 -45.98138427734375 0.0
                CHANNELS 3 Zrotation Xrotation Yrotation
                End Site
                {
                    OFFSET 0.0 0.0 18.392553329467773
                }
            }
        }
    }
    JOINT Spine
    {
        OFFSET 0.0 26.02830696105957 0.0
        CHANNELS 3 Zrotation Xrotation Yrotation
        JOINT Spine3
        {
            OFFSET 0.0 25.707931518554688 0.0
            CHANNELS 3 Zrotation Xrotation Yrotation
            JOINT Neck
            {
                OFFSET 0.0 11.377967834472656 0.0
                CHANNELS 3 Zrotation Xrotation Yrotation
                End Site
                {
                    OFFSET 0.0 4.551187515258789 0.0
                }
            }
            JOINT LeftArm
            {
                OFFSET 14.338211059570312 0.0 0.0
                CHANNELS 3 Zrotation Xrotation Yrotation
                JOINT LeftForeArm
                {
                    OFFSET 28.803199768066406 0.0 0.0
                    CHANNELS 3 Zrotation Xrotation Yrotation
                    JOINT LeftHand
                    {
                        OFFSET 25.45382308959961 0.0 0.0
                        CHANNELS 3 Zrotation Xrotation Yrotation
                        End Site
                        {
                            OFFSET 10.181529998779297 0.0 0.0
                        }
                    }
                }
            }
            JOINT RightArm
            {
                OFFSET -14.338211059570312 0.0 0.0
                CHANNELS 3 Zrotation Xrotation Yrotation
                JOINT RightForeArm
                {
                    OFFSET -28.803199768066406 0.0 0.0
                    CHANNELS 3 Zrotation Xrotation Yrotation
                    JOINT RightHand
                    {
                        OFFSET -25.45382308959961 0.0 0.0
                        CHANNELS 3 Zrotation Xrotation Yrotation
                        End Site
                        {
                            OFFSET -10.181529998779297 0.0 0.0
                        }
                    }
                }
            }
        }
    }
}
MOTION
Frames: 12
Frame Time: 0.03333333333333333
-0.00021728474530391395 94.5513916015625 -0.0010353848338127136 10.924455980002165 -12.434870437591076 6.401101479334922 -2.075128166102317 20.622286293603356 -2.4087237916820916 -4.729660791600215 5.883361640779722 -0.1677425473288927 -3.975693351829396e-16 1.2424041724466862e-17 9.93923337957349e-17 -2.712370242430938 15.013961057906348 -1.6098311910132272 -0.14079970331351688 9.032956727448903 -0.9212668319531795 -7.951386703658791e-16 2.4848083448933725e-17 -4.969616689786744e-16 -17.66367250530732 14.398387147513917 2.1962328133575277 9.302834786032965e-07 2.3299769633743337e-08 6.633230803093991 15.427703197311377 16.339104243137275 160.37753219744164 118.09330090359991 -20.121440154324663 176.66742578638508 -7.794345418878863e-07 -1.1748514763756427e-06 23.94570553950734 -4.231550961092635e-15 0.0 0.0 -178.81424595602152 59.629780919469724 142.41643253335866 3.209371134659879e-06 -2.4502146639403885e-06 -53.98238207978554 3.1805546814635168e-15 0.0 0.0
-0.0001437944738427177 94.5513916015625 -0.0009902359452098608 10.908922455124806 -12.290213940852293 6.880471548632367 -1.8429675193190256 20.53477133262656 -2.419631911431181 -5.175502960915275 5.782734032793129 -0.1257249954888322 -1.987846675914698e-16 -8.620910738379216e-35 4.969616689786745e-17 -2.6382535899441137 14.69057629809714 -1.5498917853496668 0.04735957782803829 9.01932074427435 -0.9357232269791061 -4.310455369189608e-35 -4.969616689786745e-17 -9.93923337957349e-17 -17.43604162318528 14.492352352901271 2.196690503591145 3.025694485586008e-07 1.8229973569355714e-07 6.785565629828712 15.386192381535901 15.75582330933571 159.9510675890284 118.1339105342251 -20.26383585896529 176.64897467769168 3.2078450834187974e-06 7.285188477688574e-07 24.09949649391708 -1.9629985924657646e-15 -2.724207793327832e-32 1.5902773407317588e-15 -178.38371542618836 60.92645370559142 142.62950078491866 4.687130794738023e-06 -6.161298116891471e-07 -50.945473812458474 -3.1805546814635168e-15 -3.1805546814635168e-15 -6.3611093629270335e-15
-0.0001363385235890746 94.55140686035156 -0.00099641690030694 10.614895760923849 -12.22269588982573 6.329203867821001 -1.728484817088874 20.654304131531898 -2.414993296798793 -4.824381501338999 5.43504051204522 -0.14650066906391995 0.0 0.0 6.460501696722769e-16 -2.5922635297607486 14.661760975021586 -1.516476352398902 0.03015808751485318 8.76156214633092 -0.8889631996607175 -7.951386703658791e-16 7.58640144977371e-33 -1.0933156717530838e-15 -17.029412284539838 14.387213669400376 2.119793776741394 -2.3393720211766326e-07 -1.7108242580293303e-08 6.993403103486375 15.580021139439227 15.194284198256819 160.68445810539694 117.59352704006753 -19.810322183849888 176.43034798590872 1.2307503440881617e-06 -4.699503639347365e-06 23.997193623984842 2.9631339512853465e-15 0.0 0.0 -176.61097474820534 61.735593299210855 140.61301531966743 2.233581651178241e-06 1.399896340564229e-06 -48.85854218143726 3.1805546814635164e-15 0.0 0.0
-9.584509825799614e-05 94.55142974853516 -0.0009862750303000212 10.451091302279105 -12.220495893441285 5.872388862366372 -1.8183166276369158 20.54332321039854 -2.409574654350499 -4.505381516935467 5.446667397244887 -0.17929133483526874 0.0 0.0 -4.969616689786745e-17 -2.6052533388479318 14.697533793395127 -1.5447866814462485 -0.014501551094580309 8.597321442406054 -0.879631985962075 0.0 0.0 1.9878466759146977e-16 -16.662308797404847 14.27753788712987 1.9841645613640775 -2.698571402131239e-07 5.638734991344837e-08 7.119770052567438 15.389093546957989 15.251980154773415 160.72994317527971 117.31199975695598 -19.14255541529831 176.44728079459685 3.303139846658272e-08 2.8644232723841678e-06 23.93892687600076 9.081974500585277e-15 0.0 0.0 -175.1970573221652 62.25280092473556 138.81233998324797 -6.741255976792888e-07 3.3506566240902888e-06 -47.743174403040385 6.361109362927033e-15 3.531125038440127e-31 6.361109362927033e-15
-7.165572606027126e-05 94.55140686035156 -0.000981500488705933 10.14418679881906 -12.312003399658593 4.941345860940203 -1.8092692686830565 20.536498275470056 -2.430981770833327 -4.262835283057719 5.491142055833106 -0.20959913730495144 0.0 1.5902773407317582e-15 0.0 -2.5675522052938597 14.636020063676924 -1.5616080545831679 -0.182412109081106 8.551306864959436 -0.8631848824026828 -7.95138670365879e-16 0.0 0.0 -16.25666802878071 14.308465269584712 1.8729936669189768 -1.665574344189617e-07 -9.901401756678294e-08 7.1269241594295725 15.158995983238949 15.241298193988472 160.871771148363 116.91382568605704 -19.214157868326026 176.34529906260644 3.872787438094823e-07 2.2186939106651442e-06 23.916518617941882 -2.7022290750715425e-15 -1.5902773407317584e-15 -1.5902773407317584e-15 -172.079921855555 62.71049861383538 135.5650379080177 -3.207427670165794e-06 -8.70570624442131e-07 -47.94009326121334 0.0 -3.180554681463516e-15 0.0
-0.00013011945702601224 94.55136108398438 -0.000988728366792202 10.089986106777815 -12.392872047029709 4.185882149591268 -1.9360804997422572 20.51089478333007 -2.4215446436393724 -4.332651250988568 5.567999048398151 -0.20418028458636212 0.0 0.0 -4.472655020808071e-16 -2.6770438429168353 14.433373677492462 -1.540184627750171 -0.3374654852594828 8.74359376411122 -0.8593182626100533 -5.517382872562698e-33 1.5902773407317588e-15 3.975693351829397e-16 -16.20338364770085 14.486826682339414 1.854724263835108 -1.8561467439234925e-07 -1.1334358607183743e-07 7.0289519204702495 15.171088344778886 15.475701423225425 160.9597594712849 117.03087061235115 -20.753339706948314 176.63161701850063 1.0719762855161674e-06 -1.9622295424621173e-06 23.576524403134187 -2.5345045117912405e-15 0.0 0.0 -172.59617019744434 62.12476722912937 135.84872648681468 -8.087465336760634e-07 1.38951293064404e-06 -51.14072208857128 0.0 0.0 6.3611093629270335e-15
-0.00014819178613834083 94.55134582519531 -0.0009919956792145967 9.919987774303227 -12.491258265208572 3.4883682612711406 -1.9382351115625596 20.545320331082166 -2.413928483022342 -4.272649088039783 5.7274395702189755 -0.21282586159782568 0.0 -1.5840653198695253e-15 0.0 -2.5711635237712143 14.18752406993483 -1.5331926123707802 -0.4598042260226056 9.071149100066338 -0.8844934306652136 -7.951386703658791e-16 -1.5964893615939914e-15 -9.93923337957349e-17 -16.077287229383387 14.561053195570167 1.8395378125735327 3.5229610362399117e-07 7.762646824992492e-08 7.03601079002798 15.473533495267326 15.73740416325332 160.59992107462713 116.87473453401465 -22.075425587080748 176.6587975572804 2.5305039301958122e-06 6.132823285308045e-07 23.410175957440792 -6.06293236153983e-15 1.5902773407317588e-15 -3.1805546814635176e-15 -171.47206479052804 61.29321324655347 134.83956198452634 -2.2759950104292873e-07 -3.5932959094921683e-06 -54.353950067602916 0.0 0.0 -6.361109362927033e-15
-0.00016449889517389238 94.55128479003906 -0.000985387247055769 9.944225614312463 -12.701257882871692 2.9578692750295126 -2.113244845408074 20.638121105271203 -2.365792945518347 -4.183044745009313 5.8386813061998915 -0.21005421215008382 0.0 0.0 4.969616689786745e-17 -2.8350453948626577 14.048780723305306 -1.4563493544651576 -0.4642068264439901 9.47732229933404 -0.8828082433583502 -7.951386703658794e-16 3.1060104311167156e-18 9.939233379573492e-17 -16.06471081678799 14.548171832015862 1.8319896515245002 4.093543755626321e-07 8.372954069707389e-09 7.141616354713124 15.685847089936463 16.162438390435238 160.50059251263275 116.87814818030813 -23.944873082226913 176.538860377271 -6.634288942807845e-07 -2.1456153585625877e-06 23.489463350368926 3.9756933518293955e-16 0.0 0.0 -172.19390373629042 58.87337012826314 134.94826839636116 -6.579269169752086e-06 7.192825349901614e-07 -58.038162326148885 0.0 0.0 0.0
-0.00022822432219982147 94.55120849609375 -0.000986184342764318 9.943885850435086 -12.760383300463765 2.4924904364586773 -2.0980667097526178 20.434203335368284 -2.392320788533533 -4.31331275986766 6.140571670808379 -0.22171256066158443 0.0 0.0 0.0 -2.9563700136420614 13.838944948721924 -1.4353990545434978 -0.5822112847032178 9.925885385830854 -0.9047892383127627 0.0 0.0 0.0 -16.198004584204142 14.44419459604618 1.8218054977317282 4.3211803834875566e-07 5.4099807049287156e-08 7.1360221553303225 15.8687844469344 15.828128693366326 160.80417172225094 117.11202668837917 -24.759500847146928 176.76958212849894 1.7929108863079703e-06 2.800426261696089e-06 23.625086490959127 -3.379339349054988e-15 1.5902773407317592e-15 4.689775441678294e-32 -172.83446008974 57.23931241205428 134.978187933327 9.679566715597456e-07 -5.370192624747932e-06 -59.61158872063703 0.0 0.0 1.2722218725854067e-14
-0.0002771825238596648 94.55115509033203 -0.0009906970662996173 9.9623522106108 -12.73983119162816 2.2903505614025295 -2.1383400273079514 20.335203605340414 -2.395236910402658 -4.279283548163024 6.402627183532528 -0.23959748339496909 8.418858142948453e-38 1.9412565194479472e-19 -4.969616689786745e-17 -2.919750152047629 13.801015962422333 -1.4597533203530095 -0.837949599540458 10.120903674559187 -0.8972788830655519 7.951386703658794e-16 0.0 0.0 -16.057334119935096 14.548187815259773 1.778347567707374 2.854210366558162e-07 2.9500743392473154e-07 6.874934618778627 15.919896057737716 15.566344219719058 161.28950465617396 117.10601372392013 -25.988494962686143 176.92923184088255 -1.7588851364316432e-06 -5.0746966951034035e-06 24.234990628190673 -2.9817700138720476e-15 1.5902773407317588e-15 3.1805546814635176e-15 -174.05365837122744 55.8528395397316 135.24311746310713 3.432509266545282e-06 2.6655314312055215e-06 -61.97630344944006 -3.1805546814635168e-15 6.3611093629270335e-15 1.7655625192200634e-31
-0.00028406738420017064 94.55110931396484 -0.0009848619811236858 9.873359260267991 -12.673606594473286 1.7923333613205374 -2.1079340278110195 20.113549056876483 -2.3767631632669097 -4.181871071438505 6.52989369433413 -0.25847928175244034 0.0 0.0 4.969616689786745e-17 -2.875931000723591 13.609570399814437 -1.4474155906787225 -1.0182547634031396 10.213507491979863 -0.8795566407918037 -1.3793457181406746e-33 -1.5902773407317584e-15 -9.93923337957349e-17 -16.006966095414363 14.512516358933267 1.7643135235932903 -5.48556579742343e-07 -1.3268891202113238e-08 6.894683360577244 15.667644687755097 15.458850341877 161.81092025122612 117.11994573397828 -26.47528752960618 176.8243407253471 3.2099105584151697e-06 1.1865915381970986e-06 24.465425681030563 9.93923337957349e-16 0.0 0.0 -173.8857883474715 55.19611417842424 134.65562132150467 -1.25028028069852e-06 2.799616169292714e-06 -63.56408016638622 0.0 0.0 6.3611093629270335e-15
-0.00026546994922682643 94.55113220214844 -0.000994684873148799 9.559354870199053 -12.771362764397056 0.8154514204277993 -2.0808395393178096 20.058344827809034 -2.348990653608962 -4.19835982307968 6.6091327596907465 -0.2532805643237019 -3.975693351829395e-16 -1.590277340731758e-15 4.969616689786743e-17 -2.9221739323457463 13.650844343941458 -1.4195958584991666 -0.7787522775109995 10.12853939460692 -0.8913287653067554 7.951386703658792e-16 0.0 0.0 -15.881947056001202 14.694208967482602 1.7765952240336258 -1.091784732086913e-07 -1.6128544094866693e-07 6.785090383614274 15.673303991554098 14.999398514467945 162.03629585850345 116.78943549182338 -27.316890834410835 176.65556507033074 2.398892972041116e-06 1.636755374565938e-06 24.56114377596342 1.1927080055488192e-15 0.0 0.0 -172.08172071051735 54.94496863112121 133.37961272072855 -1.6170168582566996e-06 2.42810889733349e-06 -64.52295216026647 3.1805546814635168e-15 6.3611093629270335e-15 -1.7655625192200634e-31
